name ../AP_Laxity/ap_30.mot
datacolumns   7
datarows 83
range   7.00000000 7.82000000
cursor 1.0 1.0 0.0
keys m_key
wrap
enforce_loops no
enforce_constraints no
calc_derivatives -1.000000
event_color 0.000000 0.000000 0.000000
endheader
            time femur_r_force_vx femur_r_force_vy femur_r_force_vz femur_r_force_px femur_r_force_py femur_r_force_pz 
      7.00000000     -77.81812026      44.92831268       0.00000000      -0.03798529      -0.50443412       0.00000000 
      7.01000000     -77.94806914      45.00333870       0.00000000      -0.03798529      -0.50443412       0.00000000 
      7.02000000     -78.07715647      45.07786730       0.00000000      -0.03798529      -0.50443412       0.00000000 
      7.03000000     -78.20537903      45.15189664       0.00000000      -0.03798529      -0.50443412       0.00000000 
      7.04000000     -78.33273365      45.22542486       0.00000000      -0.03798529      -0.50443412       0.00000000 
      7.05000000     -78.45921715      45.29845014       0.00000000      -0.03798529      -0.50443412       0.00000000 
      7.06000000     -78.58482639      45.37097067       0.00000000      -0.03798529      -0.50443412       0.00000000 
      7.07000000     -78.70955825      45.44298464       0.00000000      -0.03798529      -0.50443412       0.00000000 
      7.08000000     -78.83340962      45.51449026       0.00000000      -0.03798529      -0.50443412       0.00000000 
      7.09000000     -78.95637742      45.58548576       0.00000000      -0.03798529      -0.50443412       0.00000000 
      7.10000000     -79.07845860      45.65596936       0.00000000      -0.03798529      -0.50443412       0.00000000 
      7.11000000     -79.19965012      45.72593931       0.00000000      -0.03798529      -0.50443412       0.00000000 
      7.12000000     -79.31994896      45.79539388       0.00000000      -0.03798529      -0.50443412       0.00000000 
      7.13000000     -79.43935214      45.86433134       0.00000000      -0.03798529      -0.50443412       0.00000000 
      7.14000000     -79.55785669      45.93274997       0.00000000      -0.03798529      -0.50443412       0.00000000 
      7.15000000     -79.67545965      46.00064808       0.00000000      -0.03798529      -0.50443412       0.00000000 
      7.16000000     -79.79215811      46.06802397       0.00000000      -0.03798529      -0.50443412       0.00000000 
      7.17000000     -79.90794917      46.13487596       0.00000000      -0.03798529      -0.50443412       0.00000000 
      7.18000000     -80.02282993      46.20120240       0.00000000      -0.03798529      -0.50443412       0.00000000 
      7.19000000     -80.13679756      46.26700164       0.00000000      -0.03798529      -0.50443412       0.00000000 
      7.20000000     -80.24984920      46.33227204       0.00000000      -0.03798529      -0.50443412       0.00000000 
      7.21000000     -80.36198206      46.39701198       0.00000000      -0.03798529      -0.50443412       0.00000000 
      7.22000000     -80.47319334      46.46121984       0.00000000      -0.03798529      -0.50443412       0.00000000 
      7.23000000     -80.58348028      46.52489403       0.00000000      -0.03798529      -0.50443412       0.00000000 
      7.24000000     -80.69284014      46.58803298       0.00000000      -0.03798529      -0.50443412       0.00000000 
      7.25000000     -80.80127019      46.65063509       0.00000000      -0.03798529      -0.50443412       0.00000000 
      7.26000000     -80.90876774      46.71269883       0.00000000      -0.03798529      -0.50443412       0.00000000 
      7.27000000     -81.01533012      46.77422265       0.00000000      -0.03798529      -0.50443412       0.00000000 
      7.28000000     -81.12095467      46.83520502       0.00000000      -0.03798529      -0.50443412       0.00000000 
      7.29000000     -81.22563877      46.89564441       0.00000000      -0.03798529      -0.50443412       0.00000000 
      7.30000000     -81.32937982      46.95553933       0.00000000      -0.03798529      -0.50443412       0.00000000 
      7.31000000     -81.43217524      47.01488830       0.00000000      -0.03798529      -0.50443412       0.00000000 
      7.32000000     -81.53402247      47.07368982       0.00000000      -0.03798529      -0.50443412       0.00000000 
      7.33000000     -81.63491898      47.13194245       0.00000000      -0.03798529      -0.50443412       0.00000000 
      7.34000000     -81.73486226      47.18964473       0.00000000      -0.03798529      -0.50443412       0.00000000 
      7.35000000     -81.83384982      47.24679522       0.00000000      -0.03798529      -0.50443412       0.00000000 
      7.36000000     -81.93187920      47.30339251       0.00000000      -0.03798529      -0.50443412       0.00000000 
      7.37000000     -82.02894797      47.35943519       0.00000000      -0.03798529      -0.50443412       0.00000000 
      7.38000000     -82.12505371      47.41492187       0.00000000      -0.03798529      -0.50443412       0.00000000 
      7.39000000     -82.22019403      47.46985116       0.00000000      -0.03798529      -0.50443412       0.00000000 
      7.40000000     -82.31436657      47.52422170       0.00000000      -0.03798529      -0.50443412       0.00000000 
      7.41000000     -82.40756898      47.57803214       0.00000000      -0.03798529      -0.50443412       0.00000000 
      7.42000000     -82.49979895      47.63128113       0.00000000      -0.03798529      -0.50443412       0.00000000 
      7.43000000     -82.59105418      47.68396736       0.00000000      -0.03798529      -0.50443412       0.00000000 
      7.44000000     -82.68133241      47.73608952       0.00000000      -0.03798529      -0.50443412       0.00000000 
      7.45000000     -82.77063138      47.78764631       0.00000000      -0.03798529      -0.50443412       0.00000000 
      7.46000000     -82.85894888      47.83863644       0.00000000      -0.03798529      -0.50443412       0.00000000 
      7.47000000     -82.94628271      47.88905865       0.00000000      -0.03798529      -0.50443412       0.00000000 
      7.48000000     -83.03263071      47.93891169       0.00000000      -0.03798529      -0.50443412       0.00000000 
      7.49000000     -83.11799071      47.98819431       0.00000000      -0.03798529      -0.50443412       0.00000000 
      7.50000000     -83.20236061      48.03690530       0.00000000      -0.03798529      -0.50443412       0.00000000 
      7.51000000     -83.28573830      48.08504343       0.00000000      -0.03798529      -0.50443412       0.00000000 
      7.52000000     -83.36812171      48.13260751       0.00000000      -0.03798529      -0.50443412       0.00000000 
      7.53000000     -83.44950879      48.17959636       0.00000000      -0.03798529      -0.50443412       0.00000000 
      7.54000000     -83.52989752      48.22600882       0.00000000      -0.03798529      -0.50443412       0.00000000 
      7.55000000     -83.60928589      48.27184372       0.00000000      -0.03798529      -0.50443412       0.00000000 
      7.56000000     -83.68767194      48.31709992       0.00000000      -0.03798529      -0.50443412       0.00000000 
      7.57000000     -83.76505371      48.36177631       0.00000000      -0.03798529      -0.50443412       0.00000000 
      7.58000000     -83.84142928      48.40587177       0.00000000      -0.03798529      -0.50443412       0.00000000 
      7.59000000     -83.91679676      48.44938520       0.00000000      -0.03798529      -0.50443412       0.00000000 
      7.60000000     -83.99115426      48.49231552       0.00000000      -0.03798529      -0.50443412       0.00000000 
      7.61000000     -84.06449993      48.53466167       0.00000000      -0.03798529      -0.50443412       0.00000000 
      7.62000000     -84.13683197      48.57642258       0.00000000      -0.03798529      -0.50443412       0.00000000 
      7.63000000     -84.20814855      48.61759724       0.00000000      -0.03798529      -0.50443412       0.00000000 
      7.64000000     -84.27844792      48.65818459       0.00000000      -0.03798529      -0.50443412       0.00000000 
      7.65000000     -84.34772833      48.69818365       0.00000000      -0.03798529      -0.50443412       0.00000000 
      7.66000000     -84.41598804      48.73759342       0.00000000      -0.03798529      -0.50443412       0.00000000 
      7.67000000     -84.48322537      48.77641291       0.00000000      -0.03798529      -0.50443412       0.00000000 
      7.68000000     -84.54943864      48.81464116       0.00000000      -0.03798529      -0.50443412       0.00000000 
      7.69000000     -84.61462620      48.85227721       0.00000000      -0.03798529      -0.50443412       0.00000000 
      7.70000000     -84.67878644      48.88932014       0.00000000      -0.03798529      -0.50443412       0.00000000 
      7.71000000     -84.74191776      48.92576903       0.00000000      -0.03798529      -0.50443412       0.00000000 
      7.72000000     -84.80401858      48.96162296       0.00000000      -0.03798529      -0.50443412       0.00000000 
      7.73000000     -84.86508737      48.99688104       0.00000000      -0.03798529      -0.50443412       0.00000000 
      7.74000000     -84.92512261      49.03154240       0.00000000      -0.03798529      -0.50443412       0.00000000 
      7.75000000     -84.98412280      49.06560617       0.00000000      -0.03798529      -0.50443412       0.00000000 
      7.76000000     -85.04208647      49.09907152       0.00000000      -0.03798529      -0.50443412       0.00000000 
      7.77000000     -85.09901219      49.13193760       0.00000000      -0.03798529      -0.50443412       0.00000000 
      7.78000000     -85.15489854      49.16420360       0.00000000      -0.03798529      -0.50443412       0.00000000 
      7.79000000     -85.20974413      49.19586871       0.00000000      -0.03798529      -0.50443412       0.00000000 
      7.80000000     -85.26354759      49.22693216       0.00000000      -0.03798529      -0.50443412       0.00000000 
      7.81000000     -85.31630760      49.25739316       0.00000000      -0.03798529      -0.50443412       0.00000000 
      7.82000000     -85.36802282      49.28725096       0.00000000      -0.03798529      -0.50443412       0.00000000 
